# xmcd CD database file generated by OrangeCD 6.0
#
# Track frame offsets:
#	150
#	18757
#	34804
#	48064
#	62787
#	74771
#	94497
#	106655
#	118275
#	133073
#	152767
#	167565
#	182820
#
# Disc length: 2587 seconds
#
# Revision: 0
# Processed by: cddbd v1.5.2PL0 Copyright (c) Steve Scherf et al.
# Submitted via: OrangeCD 6.0
#
DISCID=b20a190d
DTITLE=Rick Pickren - The Call: More Songs From The Lonesome Prairie
DYEAR=1900
DGENRE=
TTITLE0=The Call
TTITLE1=Old Bach
TTITLE2=(My Darling) Clementine
TTITLE3=The Ballad Of Alfred Packer
TTITLE4=Molly Mae
TTITLE5=Bury Me Not On The Lone Prairie
TTITLE6=Wrangler's Reel
TTITLE7=Windy Bill
TTITLE8=Tombstone, Arizona
TTITLE9=The Deck Of Cards
TTITLE10=Sierry Petes (Tyin' Knots In The Devil's Tail)
TTITLE11=American TV
TTITLE12=The Last Wagon
EXTD=
EXTT0=
EXTT1=
EXTT2=
EXTT3=
EXTT4=
EXTT5=
EXTT6=
EXTT7=
EXTT8=
EXTT9=
EXTT10=
EXTT11=
EXTT12=
PLAYORDER=
